<?xml version="1.0" encoding="UTF-8"?>
<svg width="13px" height="12px" viewBox="0 0 13 12" version="1.1" xmlns="http://www.w3.org/2000/svg" xmlns:xlink="http://www.w3.org/1999/xlink">
    <title>8E331E6B-A5E9-429C-9EB1-CA5CB3242389</title>
    <g id="Page-1" stroke="none" stroke-width="1" fill="none" fill-rule="evenodd">
        <g id="2.-ops-attachment-management--Email-view" transform="translate(-491.000000, -289.000000)" fill="#000" fill-rule="nonzero">
            <g id="Group-20" transform="translate(474.000000, 282.000000)">
                <path d="M19.1873685,14.2857704 L27.9374437,14.2857704 C28.6622273,14.2857704 29.2500251,13.7099791 29.2500251,13 C29.2500251,12.2900209 28.6622273,11.7142296 27.9374437,11.7142296 L19.6249625,11.7142296 C19.3832344,11.7142296 19.1873685,11.9060947 19.1873685,12.1428852 C19.1873685,12.3794795 19.3832344,12.5713445 19.6249625,12.5713445 L27.9374437,12.5713445 C28.1789715,12.5713445 28.3748373,12.7634057 28.3748373,13 C28.3748373,13.2365943 28.1789715,13.4286555 27.9374437,13.4286555 L19.1873685,13.4286555 C18.462585,13.4286555 17.8749875,12.8528643 17.8749875,12.1428852 C17.8749875,11.4327099 18.462585,10.8571148 19.1873685,10.8571148 L27.9374437,10.8571148 C29.1454832,10.8571148 30.1250125,11.8166361 30.1250125,13 C30.1250125,14.1833639 29.1454832,15.1428852 27.9374437,15.1428852 L19.1873685,15.1428852 C18.9458408,15.1428852 18.7499749,15.3347502 18.7499749,15.5713445 C18.7499749,15.808135 18.9458408,16 19.1873685,16 L27.9374437,16 C29.628739,16 31,14.6567486 31,13 C31,11.3432514 29.628739,10 27.9374437,10 L19.1873685,10 C17.9793291,10 17,10.9595213 17,12.1428852 C17,13.326249 17.9793291,14.2857704 19.1873685,14.2857704 Z" id="attach" transform="translate(24.000000, 13.000000) rotate(-42.000000) translate(-24.000000, -13.000000) "></path>
            </g>
        </g>
    </g>
</svg>