<svg width="16" height="17" viewBox="0 0 16 17" fill="none" xmlns="http://www.w3.org/2000/svg">
<path d="M4.7339 5.45847L6.07543 5.4079L6.36627 13.5713L5.02475 13.6217L4.7339 5.45847Z" fill="#286084"/>
<rect width="1.34239" height="8.16348" transform="matrix(-1 0 0 1 8.6712 5.43317)" fill="#286084"/>
<path d="M9.63393 13.5711L9.92477 5.40765L11.2663 5.45826L10.9754 13.6217L9.63393 13.5711Z" fill="#286084"/>
<path fill-rule="evenodd" clip-rule="evenodd" d="M15.9873 3.40954V2.02982H0.0126772V3.40954H1.43407L2.54379 16.3704C2.57398 16.7266 2.86439 17 3.21231 17H12.8103C13.1582 17 13.4484 16.7268 13.4788 16.3706L14.5885 3.40954H15.9873ZM12.1957 15.6203H3.8271L2.78158 3.40954H13.241L12.1957 15.6203Z" fill="#286084"/>
<path d="M6.18242 0H10.8176C11.4696 0 12 0.464058 12 1.03447V3H10.5811V1.24137H6.41891V3H5V1.03447C5 0.464058 5.53043 0 6.18242 0Z" fill="#286084"/>
</svg>
