<svg width="88" height="88" viewBox="0 0 88 88" fill="none" xmlns="http://www.w3.org/2000/svg">
<circle cx="44" cy="44" r="40" fill="#295F84" stroke="white" stroke-width="8"/>
<mask id="mask0_1_3" style="mask-type:alpha" maskUnits="userSpaceOnUse" x="0" y="0" width="88" height="88">
<circle cx="44" cy="44" r="40" fill="white" stroke="white" stroke-width="8"/>
</mask>
<g mask="url(#mask0_1_3)">
<path fill-rule="evenodd" clip-rule="evenodd" d="M25.8333 31.7917V22H65V57.25L53.25 69H25.8333V49.4167H18V31.7917H25.8333ZM19.9583 33.75V47.4583H49.3333V33.75H19.9583ZM53.25 66.2309V57.25H62.2309L53.25 66.2309ZM51.2917 55.2917H63.0417V23.9583H27.7917V31.7917H51.2917V49.4167H27.7917V67.0417H51.2917V55.2917Z" fill="white"/>
<path d="M24.5737 45H22.644L22.6567 44.0034H24.5737C25.2339 44.0034 25.784 43.8659 26.2241 43.5908C26.6642 43.3115 26.9943 42.9222 27.2144 42.4229C27.4386 41.9193 27.5508 41.3311 27.5508 40.6582V40.0933C27.5508 39.5643 27.4873 39.0946 27.3604 38.6841C27.2334 38.2694 27.0472 37.9202 26.8018 37.6367C26.5563 37.349 26.2559 37.131 25.9004 36.9829C25.5492 36.8348 25.145 36.7607 24.688 36.7607H22.606V35.7578H24.688C25.2931 35.7578 25.8454 35.8594 26.3447 36.0625C26.8441 36.2614 27.2736 36.5513 27.6333 36.9321C27.9972 37.3088 28.2765 37.7658 28.4712 38.3032C28.6659 38.8364 28.7632 39.4373 28.7632 40.106V40.6582C28.7632 41.3268 28.6659 41.9299 28.4712 42.4673C28.2765 43.0005 27.9951 43.4554 27.627 43.832C27.263 44.2087 26.8229 44.4985 26.3066 44.7017C25.7946 44.9006 25.217 45 24.5737 45ZM23.2979 35.7578V45H22.0728V35.7578H23.2979ZM37.7197 40.0869V40.6709C37.7197 41.3649 37.633 41.987 37.4595 42.5371C37.286 43.0872 37.0363 43.5549 36.7104 43.9399C36.3846 44.325 35.9932 44.6191 35.5361 44.8223C35.0833 45.0254 34.5755 45.127 34.0127 45.127C33.4668 45.127 32.9653 45.0254 32.5083 44.8223C32.0555 44.6191 31.6619 44.325 31.3276 43.9399C30.9976 43.5549 30.7415 43.0872 30.5596 42.5371C30.3776 41.987 30.2866 41.3649 30.2866 40.6709V40.0869C30.2866 39.3929 30.3755 38.7729 30.5532 38.2271C30.7352 37.6769 30.9912 37.2093 31.3213 36.8242C31.6514 36.4349 32.0428 36.1387 32.4956 35.9355C32.9526 35.7324 33.4541 35.6309 34 35.6309C34.5628 35.6309 35.0706 35.7324 35.5234 35.9355C35.9805 36.1387 36.3719 36.4349 36.6978 36.8242C37.0278 37.2093 37.2796 37.6769 37.4531 38.2271C37.6309 38.7729 37.7197 39.3929 37.7197 40.0869ZM36.5073 40.6709V40.0742C36.5073 39.5241 36.4502 39.0374 36.3359 38.6143C36.2259 38.1911 36.063 37.8356 35.8472 37.5479C35.6313 37.2601 35.3669 37.0422 35.0537 36.894C34.7448 36.7459 34.3936 36.6719 34 36.6719C33.6191 36.6719 33.2743 36.7459 32.9653 36.894C32.6606 37.0422 32.3983 37.2601 32.1782 37.5479C31.9624 37.8356 31.7952 38.1911 31.6768 38.6143C31.5583 39.0374 31.499 39.5241 31.499 40.0742V40.6709C31.499 41.2253 31.5583 41.7161 31.6768 42.1436C31.7952 42.5667 31.9645 42.9243 32.1846 43.2163C32.4089 43.5041 32.6733 43.722 32.978 43.8701C33.2869 44.0182 33.6318 44.0923 34.0127 44.0923C34.4105 44.0923 34.7638 44.0182 35.0728 43.8701C35.3817 43.722 35.6419 43.5041 35.8535 43.2163C36.0693 42.9243 36.2323 42.5667 36.3423 42.1436C36.4523 41.7161 36.5073 41.2253 36.5073 40.6709ZM45.1338 42.061H46.3525C46.2891 42.645 46.1219 43.1676 45.8511 43.6289C45.5802 44.0902 45.1973 44.4562 44.7021 44.7271C44.207 44.9937 43.5892 45.127 42.8486 45.127C42.307 45.127 41.814 45.0254 41.3696 44.8223C40.9295 44.6191 40.5508 44.3314 40.2334 43.959C39.916 43.5824 39.6706 43.1317 39.4971 42.6069C39.3278 42.078 39.2432 41.4897 39.2432 40.8423V39.9219C39.2432 39.2744 39.3278 38.6883 39.4971 38.1636C39.6706 37.6346 39.9181 37.1818 40.2397 36.8052C40.5656 36.4285 40.957 36.1387 41.4141 35.9355C41.8711 35.7324 42.3853 35.6309 42.9565 35.6309C43.6548 35.6309 44.2451 35.762 44.7275 36.0244C45.21 36.2868 45.5845 36.6507 45.8511 37.1162C46.1219 37.5775 46.2891 38.1128 46.3525 38.7222H45.1338C45.0745 38.2905 44.9645 37.9202 44.8037 37.6113C44.6429 37.2982 44.4144 37.057 44.1182 36.8877C43.8219 36.7184 43.4347 36.6338 42.9565 36.6338C42.5461 36.6338 42.1842 36.7121 41.8711 36.8687C41.5622 37.0252 41.3019 37.2474 41.0903 37.5352C40.883 37.8229 40.7264 38.1678 40.6206 38.5698C40.5148 38.9718 40.4619 39.4183 40.4619 39.9092V40.8423C40.4619 41.2951 40.5085 41.7204 40.6016 42.1182C40.6989 42.516 40.8449 42.8651 41.0396 43.1655C41.2342 43.466 41.4818 43.703 41.7822 43.8765C42.0827 44.0457 42.4382 44.1304 42.8486 44.1304C43.3691 44.1304 43.7839 44.0479 44.0928 43.8828C44.4017 43.7178 44.6344 43.4808 44.791 43.1719C44.9518 42.863 45.0661 42.4927 45.1338 42.061Z" fill="white"/>
</g>
</svg>
