<?xml version="1.0" encoding="UTF-8"?>
<svg width="14px" height="14px" viewBox="0 0 14 14" version="1.1" xmlns="http://www.w3.org/2000/svg" xmlns:xlink="http://www.w3.org/1999/xlink">
    <title>421B9B6C-6BDA-46C5-8355-F747F2D706C4</title>
    <g id="Page-1" stroke="none" stroke-width="1" fill="none" fill-rule="evenodd">
        <g id="1.-Drayage-Marketplace-Landing" transform="translate(-45.000000, -226.000000)">
            <g id="Group-25" transform="translate(32.000000, 133.000000)">
                <g id="anchor" transform="translate(13.000000, 93.000000)">
                    <circle id="Oval" fill="#4BA3E3" cx="7" cy="7" r="7"></circle>
                    <g id="big-anchor" transform="translate(3.000000, 3.000000)" fill="#FFFFFF" fill-rule="nonzero">
                        <path d="M7.99645471,6.3123351 L7.69901736,4.89571735 C7.68660039,4.83700404 7.64318031,4.78743373 7.58251009,4.76306417 C7.52197739,4.73855314 7.45191586,4.74249683 7.39503752,4.77326826 L6.02337567,5.51754789 C5.94301906,5.56112306 5.90639688,5.64855638 5.93468869,5.7289158 C5.96286262,5.8094167 6.04862219,5.86181656 6.14214235,5.85596291 L6.67789895,5.82232655 C6.16634757,6.44116837 5.39637797,6.69515649 4.51322146,6.76025399 L4.51322146,2.70758549 L4.95427907,2.70758549 C5.02540155,2.75524584 5.11283111,2.78439028 5.20829634,2.78439028 C5.44447405,2.78439028 5.63603322,2.61210562 5.63603322,2.39949977 C5.63603322,2.18677014 5.44447405,2.01448548 5.20829634,2.01448548 C5.11267394,2.01448548 5.02522472,2.0437714 4.95410224,2.09143175 L4.51320181,2.09143175 L4.51320181,1.53484018 C4.76421308,1.38462607 4.93032926,1.12832126 4.93032926,0.837425103 C4.93034891,0.375747496 4.5129464,0 4.00001972,0 C3.48709305,0 3.06965125,0.375747496 3.06965125,0.837425103 C3.06965125,1.12832126 3.23578707,1.38462607 3.48677869,1.53484018 L3.48677869,2.09144943 L3.04589791,2.09144943 C2.97477543,2.04378908 2.88734586,2.01450316 2.79172346,2.01450316 C2.55554574,2.01450316 2.36398658,2.18678782 2.36398658,2.39951746 C2.36398658,2.61210562 2.55554574,2.78440796 2.79172346,2.78440796 C2.88718869,2.78440796 2.97461825,2.75526352 3.04574073,2.70760317 L3.48677869,2.70760317 L3.48677869,6.76027167 C2.60364183,6.69517417 1.83367223,6.44118606 1.32214049,5.82234424 L1.85789709,5.8559806 C1.95139761,5.86183424 2.03717682,5.80943438 2.06533111,5.72893348 C2.09362292,5.64859175 2.05702039,5.56114075 1.97666377,5.51756557 L0.604982278,4.77328595 C0.548084295,4.74251452 0.478042406,4.73857082 0.41750971,4.76308186 C0.356839484,4.78745142 0.313419407,4.83702172 0.301002444,4.89573503 L0.00354544492,6.31235279 C-0.0138618801,6.39527649 0.0340966757,6.47809409 0.119581181,6.51266774 C0.205065685,6.54741824 0.305678452,6.52479947 0.363185496,6.45805729 L0.683177711,6.08653645 C1.30880012,6.99844964 2.29254975,7.76191719 3.42716941,7.9600923 L3.856537,8.34657443 C3.93583267,8.41780852 4.06410854,8.41780852 4.14326668,8.34657443 L4.57263427,7.9600923 C5.70725393,7.76205867 6.69114109,6.99844964 7.31678315,6.08653645 L7.63677536,6.45805729 C7.69428241,6.52479947 7.79489517,6.54741824 7.88036003,6.51266774 C7.96590348,6.47807641 8.01386203,6.39525881 7.99645471,6.3123351 Z M4.00001972,0.61611837 C4.13558467,0.61611837 4.24586381,0.715400454 4.24586381,0.837425103 C4.24586381,0.959449752 4.13558467,1.05873184 4.00001972,1.05873184 C3.86445478,1.05873184 3.75413635,0.959449752 3.75413635,0.837425103 C3.75415599,0.715400454 3.86445478,0.61611837 4.00001972,0.61611837 Z" id="XMLID_3_"></path>
                    </g>
                </g>
            </g>
        </g>
    </g>
</svg>