<?xml version="1.0" encoding="UTF-8"?>
<svg width="88px" height="88px" viewBox="0 0 88 88" version="1.1" xmlns="http://www.w3.org/2000/svg" xmlns:xlink="http://www.w3.org/1999/xlink">
    <title>91B2B1F7-5ECE-4FCC-9210-8B892F361DC0</title>
    <defs>
        <circle id="path-1" cx="40" cy="40" r="40"></circle>
    </defs>
    <g id="Page-1" stroke="none" stroke-width="1" fill="none" fill-rule="evenodd">
        <g id="2.-Drayage-Marketplace-SUBMIT-BID" transform="translate(-866.000000, -93.000000)">
            <g id="Group-2" transform="translate(464.000000, 97.000000)">
                <g id="bid_top_icon" transform="translate(406.000000, 0.000000)">
                    <mask id="mask-2" fill="white">
                        <use xlink:href="#path-1"></use>
                    </mask>
                    <use id="Mask" stroke="#FFFFFF" stroke-width="8" fill="#295F84" xlink:href="#path-1"></use>
                    <g id="tick-(1)" mask="url(#mask-2)" fill="#FFFFFF" fill-rule="nonzero">
                        <g transform="translate(23.000000, 14.000000)">
                            <path d="M29.4824017,38.90187 C29.4824017,37.5505745 28.6558045,36.3886784 27.4818084,35.89518 C27.7197076,35.4428815 27.8545072,34.9280832 27.8545072,34.3825851 C27.8545072,32.5852911 26.3922121,31.122996 24.5947181,31.122996 L20.2595326,31.122996 L20.2595326,25.5860145 C25.8554139,24.1359193 30,19.0429363 30,12.9999565 C30,5.83178051 24.1683195,0 17.0000435,0 C15.2088494,0 13.4724552,0.358598801 11.8390607,1.06589644 C11.3322624,1.2852957 11.0993632,1.87409374 11.3187624,2.38089204 C11.5381617,2.88769035 12.1272597,3.12078957 12.6337581,2.9011903 C14.0147534,2.3031923 15.4838485,2 17.0000435,2 C23.0654232,2 28,6.93457682 28,12.9999565 C28,19.0653363 23.0654232,23.9999198 17.0000435,23.9999198 C10.9346637,23.9999198 5.99998023,19.0653363 5.99998023,12.9999565 C5.99998023,11.4832616 6.30327921,10.0141665 6.90147721,8.63317114 C7.12097648,8.12637284 6.88817726,7.5375748 6.38137895,7.31807554 C5.87488065,7.09857627 5.28578261,7.33137549 5.06638335,7.8382738 C4.35878571,9.47156834 3.99998691,11.2082625 3.99998691,12.9999565 C3.99998691,19.0429363 8.14457306,24.1358193 13.7403544,25.5860145 L13.7403544,30.1050994 L13.5745549,30.1050994 C10.6464647,30.1050994 7.86557399,31.3211953 5.87268065,33.4573882 L1,33.4573882 C0.734697828,33.4573882 0.480298679,33.5627878 0.292699306,33.7504872 C0.105199932,33.9380866 -2.84216144e-15,34.1925857 -2.84216144e-15,34.4579848 L0.00700026071,46.8481434 C0.00730025971,47.4002416 0.454898763,47.8475401 1.00699692,47.8475401 L5.87788064,47.8475401 C7.87607396,49.9838329 10.6550647,51.1999288 13.5745549,51.1999288 L23.8245206,51.1999288 C25.6219146,51.1999288 27.0842097,49.7376337 27.0842097,47.9402397 C27.0842097,47.3821416 26.9433102,46.8565434 26.695111,46.3967449 C27.8312072,45.8869466 28.6244046,44.7448504 28.6244046,43.4210549 C28.6244046,42.7436571 28.4167053,42.1138592 28.0617065,41.591961 C28.9189036,41.0042629 29.4824017,40.0175662 29.4824017,38.90187 Z M17.0000435,25.9999131 C17.424942,25.9999131 17.8450406,25.9787132 18.2596392,25.9387133 L18.2596392,31.122996 L15.7404477,31.122996 L15.7404477,31.105096 L15.7404477,25.9387133 C16.1549463,25.9788132 16.5750449,25.9999131 17.0000435,25.9999131 L17.0000435,25.9999131 Z M26.2227126,40.1616657 L25.3650155,40.1616657 C24.8128173,40.1616657 24.3650188,40.6093643 24.3650188,41.1616624 C24.3650188,41.7139606 24.8128173,42.1616591 25.3650155,42.1616591 C26.0594132,42.1616591 26.6244113,42.7266572 26.6244113,43.4211549 C26.6244113,44.1156525 26.0595132,44.6807506 25.3650155,44.6807506 L23.8245206,44.6807506 C23.2723225,44.6807506 22.824524,45.1284491 22.824524,45.6807473 C22.824524,46.2329455 23.2722225,46.680744 23.8245206,46.680744 C24.5191183,46.680744 25.0842164,47.2458421 25.0842164,47.9404397 C25.0842164,48.6350374 24.5192183,49.2001355 23.8245206,49.2001355 L13.5745549,49.1998355 C11.0843632,49.1998355 8.71867114,48.1053392 7.0841766,46.1970456 C6.89427724,45.9752463 6.61677817,45.8475467 6.32467914,45.8475467 L2.00649358,45.8475467 L2.0005936,35.4573815 L6.32017916,35.4573815 C6.61287818,35.4573815 6.89077725,35.3291819 7.08077661,35.1065826 C8.70887117,33.199089 11.0757633,32.1049927 13.5744549,32.1049927 L13.7402544,32.1049927 L13.7402544,32.1228926 C13.7402544,32.6751908 14.1880529,33.1228893 14.740251,33.1228893 L24.5946181,33.1228893 C25.2892157,33.1228893 25.8544139,33.6878874 25.8544139,34.3824851 C25.8544139,35.0770827 25.2893157,35.6421809 24.5946181,35.6421809 C24.0424199,35.6421809 23.5946214,36.0898794 23.5946214,36.6421775 C23.5946214,37.1944757 24.0424199,37.6421742 24.5946181,37.6421742 L26.2226126,37.6421742 C26.9172103,37.6421742 27.4823084,38.2072723 27.4823084,38.90177 C27.4823084,39.5964676 26.9174103,40.1616657 26.2227126,40.1616657 L26.2227126,40.1616657 Z" id="Shape"></path>
                            <path d="M13.7333544,17.5617413 C14.3182524,18.1465393 15.0863499,18.4389384 15.8545473,18.4389384 C16.6227447,18.4389384 17.3908421,18.1465393 17.9757402,17.5617413 L22.8569239,12.6805576 C24.02652,11.5109615 24.02652,9.60776788 22.8569239,8.43817179 C21.6872278,7.2686757 19.7842341,7.2686757 18.6145381,8.43817179 L15.8545473,11.1981626 L15.3855489,10.7291641 C14.2158528,9.55966804 12.3128591,9.55966804 11.143163,10.7291641 C10.5765649,11.2957622 10.264566,12.0490597 10.264566,12.850357 C10.264566,13.6516544 10.5765649,14.4049518 11.143163,14.97155 L13.7333544,17.5617413 Z M12.5573583,12.1434594 C12.7522577,11.9485601 13.0082568,11.8511604 13.2642559,11.8511604 C13.5202551,11.8511604 13.7763542,11.9486601 13.9711536,12.1434594 L15.1473496,13.3195555 C15.5379483,13.7100542 16.1709462,13.7100542 16.5616449,13.3195555 L20.0287333,9.85246707 C20.418532,9.46266837 21.0527299,9.46266837 21.4426286,9.85246707 C21.631528,10.0412664 21.7355276,10.2923656 21.7355276,10.5593647 C21.7355276,10.8263638 21.631528,11.077463 21.4426286,11.2662623 L16.5614449,16.147446 C16.1716462,16.5372447 15.5374483,16.5372447 15.1475496,16.147446 L12.5573583,13.5572547 C12.3684589,13.3684553 12.2644593,13.1174562 12.2644593,12.850357 C12.2644593,12.5832579 12.3684589,12.3322588 12.5573583,12.1434594 L12.5573583,12.1434594 Z" id="Shape"></path>
                            <path d="M8.51477182,5.51428157 C8.77087096,5.51428157 9.02697011,5.41658189 9.22226946,5.22128255 C9.61276815,4.83078385 9.61276815,4.19758597 9.22226946,3.80708727 C8.83167076,3.41658858 8.19867288,3.41658858 7.80797418,3.80708727 L7.80747419,3.80758727 C7.41697549,4.19808597 7.41727549,4.83098385 7.80777418,5.22148255 C8.00307353,5.41668189 8.25897268,5.51428157 8.51477182,5.51428157 L8.51477182,5.51428157 Z" id="Path"></path>
                        </g>
                    </g>
                </g>
            </g>
        </g>
    </g>
</svg>