<?xml version="1.0" encoding="UTF-8"?>
<svg width="121px" height="91px" viewBox="0 0 121 91" version="1.1" xmlns="http://www.w3.org/2000/svg" xmlns:xlink="http://www.w3.org/1999/xlink">
    <title>0CB94897-4344-4A3F-8886-834F42F419AE</title>
    <g id="Page-1" stroke="none" stroke-width="1" fill="none" fill-rule="evenodd">
        <g id="2a.-Drayage-Marketplace-Confirm" transform="translate(-977.000000, -450.000000)" fill="#FFFFFF" stroke="#13C917">
            <g id="Submit" transform="translate(977.000000, 450.000000)">
                <rect id="Rectangle" stroke-width="5" x="2.5" y="2.5" width="116" height="28" rx="8"></rect>
                <path d="M56.4349425,78.9148058 L56.4349425,89 L85.5334088,89 L83.5032145,78.9148058 L56.4349425,78.9148058 Z M48.3995919,68.088723 C49.1868502,70.108598 56.4349425,78.9148756 56.4349425,78.9148756 L83.5032145,78.9148756 C83.5032145,78.9148756 87,71.2160189 87,69.0499362 L87,53.0817819 C87,50.9156991 85.2326939,49.1596688 83.052529,49.1597386 C80.8724344,49.1596688 79.105058,50.9156991 79.1049877,53.0817819 L79.105058,49.2075897 C79.105058,47.0417165 77.3376113,45.2856862 75.1575167,45.285756 C72.9774924,45.2856862 71.210116,47.0416466 71.2101863,49.2075897 L71.2101863,45.6499133 C71.2101863,43.4838305 69.44281,41.7279399 67.262645,41.7279399 C65.0825504,41.7278701 63.3151037,43.4839004 63.3151037,45.6498435 L63.3151037,26.9220433 C63.3151037,24.7558906 61.5477274,23 59.3675624,23 C57.1873975,23 55.4200914,24.7558906 55.4200914,26.9219734 L55.4201617,59.6415031 C55.4200914,59.8537245 55.4376689,60.0617545 55.4705035,60.2648247 C55.4705035,60.2648247 45.7202277,51.0749699 42.2679483,48.0019517 C41.8853929,47.6614755 41.2206142,47.1187672 40.5185009,46.9318336 C38.6041772,46.4221671 36.6361368,47.5509639 36.1231568,49.4530623 C35.8515502,50.4602405 36.0423006,51.4823678 36.5662489,52.2968842 C36.5943728,52.340544 36.6234107,52.383575 36.6533627,52.4259774 C36.6645419,52.4417648 36.6758618,52.4574823 36.6873223,52.4730601 C37.1536166,53.1110514 46.7199621,63.7795399 48.3995919,68.088723 Z" id="Stroke-3" stroke-width="4" stroke-linecap="round" stroke-linejoin="round"></path>
            </g>
        </g>
    </g>
</svg>