<?xml version="1.0" encoding="UTF-8"?>
<svg width="16px" height="17px" viewBox="0 0 16 17" version="1.1" xmlns="http://www.w3.org/2000/svg" xmlns:xlink="http://www.w3.org/1999/xlink">
    <title>1A4F999F-F410-4966-B916-37EF1A856379</title>
    <g id="Page-1" stroke="none" stroke-width="1" fill="none" fill-rule="evenodd">
        <g id="2.-Drayage-Marketplace-SUBMIT-BID-2" transform="translate(-1265.000000, -646.000000)" fill="#286084" fill-rule="nonzero">
            <g id="Group-11" transform="translate(742.000000, 600.000000)">
                <g id="delete" transform="translate(531.000000, 54.500000) scale(-1, 1) translate(-531.000000, -54.500000) translate(523.000000, 46.000000)">
                    <g id="Group" transform="translate(0.000000, 2.000000)">
                        <polygon id="Path" points="11.2660753 3.4584633 9.9245523 3.40788991 9.63370711 11.5713303 10.9752301 11.6216972"></polygon>
                        <rect id="Rectangle" x="7.32880335" y="3.43317661" width="1.34239331" height="8.16347477"></rect>
                        <polygon id="Path" points="6.36605858 11.5711239 6.07521339 3.40764908 4.73369038 3.45825688 5.02456904 11.6216972"></polygon>
                        <path d="M0.0126861925,0.0298279817 L0.0126861925,1.40955275 L1.41148117,1.40955275 L2.52117155,14.3706193 C2.55159833,14.7268005 2.84180753,15 3.18969038,15 L12.787682,15 C13.1355983,15 13.4260084,14.726594 13.4562008,14.3703784 L14.5659247,1.40955275 L15.9873138,1.40955275 L15.9873138,0.0298279817 L0.0126861925,0.0298279817 Z M12.172887,13.6202752 L3.80431799,13.6202752 L2.75902929,1.40955275 L13.21841,1.40955275 L12.172887,13.6202752 Z" id="Shape"></path>
                    </g>
                    <path d="M9.81757713,0 L5.18242287,0 C4.5304274,0 4,0.464057615 4,1.03447208 L4,3 L5.41890744,3 L5.41890744,1.2413665 L9.58109256,1.2413665 L9.58109256,3 L11,3 L11,1.03447208 C11,0.464057615 10.4695726,0 9.81757713,0 Z" id="Path"></path>
                </g>
            </g>
        </g>
    </g>
</svg>