<?xml version="1.0" encoding="UTF-8"?>
<svg width="91px" height="91px" viewBox="0 0 91 91" version="1.1" xmlns="http://www.w3.org/2000/svg" xmlns:xlink="http://www.w3.org/1999/xlink">
    <title>A8798653-D061-4D86-9D9B-2767E6E0A978</title>
    <g id="Page-1" stroke="none" stroke-width="1" fill="none" fill-rule="evenodd">
        <g id="2b.-Drayage-Marketplace-done" transform="translate(-995.000000, -446.000000)" fill="#13C917" fill-rule="nonzero">
            <g id="tick" transform="translate(995.000000, 446.000000)">
                <path d="M88.9954239,12.999049 C87.6526353,11.6690725 85.473902,11.666781 84.1311134,12.9934083 L42.8610448,53.6915692 L27.9709243,37.7013566 C26.6842933,36.3204373 24.5089473,36.2308909 23.1100012,37.5028737 C21.7121247,38.7750327 21.6226293,40.9269681 22.9092603,42.3091213 L40.2246724,60.902527 C40.8588066,61.5839968 41.7462736,61.9797287 42.6820539,61.9989424 C42.7071911,62 42.7314369,62 42.7555044,62 C43.6648996,62 44.5397088,61.6428718 45.1841832,61.007938 L88.9886493,17.8097034 C90.3348252,16.4832524 90.3371428,14.3290254 88.9954239,12.999049 Z" id="Path"></path>
                <path d="M87.5702598,42.0702598 C85.6759668,42.0702598 84.1406973,43.6055293 84.1406973,45.5 C84.1406973,66.8073301 66.8073301,84.1406973 45.5,84.1406973 C24.1939141,84.1406973 6.85930273,66.8073301 6.85930273,45.5 C6.85930273,24.1939141 24.1939141,6.85930273 45.5,6.85930273 C47.394293,6.85930273 48.9297402,5.3240332 48.9297402,3.42974023 C48.9297402,1.53526953 47.394293,0 45.5,0 C20.4110156,0 0,20.4110156 0,45.5 C0,70.587918 20.4110156,91 45.5,91 C70.587918,91 91,70.587918 91,45.5 C91,43.605707 89.4647305,42.0702598 87.5702598,42.0702598 Z" id="Path"></path>
            </g>
        </g>
    </g>
</svg>