<?xml version="1.0" encoding="UTF-8"?>
<svg width="14px" height="14px" viewBox="0 0 14 14" version="1.1" xmlns="http://www.w3.org/2000/svg" xmlns:xlink="http://www.w3.org/1999/xlink">
    <title>998F842C-6CDF-4160-BE9B-1390C9A9C8FE</title>
    <g id="Page-1" stroke="none" stroke-width="1" fill="none" fill-rule="evenodd">
        <g id="1.-Drayage-Marketplace-Landing" transform="translate(-45.000000, -272.000000)">
            <g id="Group-25" transform="translate(32.000000, 133.000000)">
                <g id="Group-5" transform="translate(13.000000, 93.000000)">
                    <g id="Warehouse" transform="translate(0.000000, 46.000000)">
                        <circle id="Oval" fill="#4BA3E3" cx="7" cy="7" r="7"></circle>
                        <g id="warehouse" transform="translate(3.000000, 3.000000)" fill="#FFFFFF" fill-rule="nonzero">
                            <path d="M8,1.5028879 L4,0 L0,1.5028879 L0,3.28505756 L0.470588235,3.28505756 L0.470588235,8 L7.52941176,8 L7.52941176,3.28505756 L8,3.28505756 L8,1.5028879 Z M2.35294118,6.11402302 L5.64705882,6.11402302 L5.64705882,6.58551727 L2.35294118,6.58551727 L2.35294118,6.11402302 Z M1.88235294,4.69954029 L1.88235294,4.22804605 L6.11764706,4.22804605 L6.11764706,4.69954029 L1.88235294,4.69954029 Z M5.64705882,5.17103454 L5.64705882,5.64252878 L2.35294118,5.64252878 L2.35294118,5.17103454 L5.64705882,5.17103454 Z M2.35294118,7.05701151 L5.64705882,7.05701151 L5.64705882,7.52850576 L2.35294118,7.52850576 L2.35294118,7.05701151 Z M7.05882353,7.52850576 L6.11764706,7.52850576 L6.11764706,5.17103454 L6.58823529,5.17103454 L6.58823529,3.75655181 L1.41176471,3.75655181 L1.41176471,5.17103454 L1.88235294,5.17103454 L1.88235294,7.52850576 L0.941176471,7.52850576 L0.941176471,3.28505756 L7.05882353,3.28505756 L7.05882353,7.52850576 Z M7.52941176,2.81356332 L0.470588235,2.81356332 L0.470588235,1.82963341 L4,0.503555852 L7.52941176,1.8296177 L7.52941176,2.81356332 Z" id="Shape"></path>
                            <polygon id="Path" points="2 2 2.66666667 2 2.66666667 2.66666667 2 2.66666667"></polygon>
                            <polygon id="Path" points="2.66666667 2 3.33333333 2 3.33333333 2.66666667 2.66666667 2.66666667"></polygon>
                            <polygon id="Path" points="3.33333333 2 4 2 4 2.66666667 3.33333333 2.66666667"></polygon>
                            <polygon id="Path" points="4.66666667 2 5.33333333 2 5.33333333 2.66666667 4.66666667 2.66666667"></polygon>
                            <polygon id="Path" points="5.33333333 2 6 2 6 2.66666667 5.33333333 2.66666667"></polygon>
                        </g>
                    </g>
                </g>
            </g>
        </g>
    </g>
</svg>